<?xml version="1.0" ?>
<!DOCTYPE svg  PUBLIC '-//W3C//DTD SVG 1.1//EN'  'http://www.w3.org/Graphics/SVG/1.1/DTD/svg11.dtd'>
<!-- Uploaded to: SVG Repo, www.svgrepo.com, Generator: SVG Repo Mixer Tools -->
<svg fill="#000000" width="800px" height="800px" viewBox="0 0 512 512" enable-background="new 0 0 512 512" id="microwave_1_" version="1.1" xml:space="preserve" xmlns="http://www.w3.org/2000/svg" xmlns:xlink="http://www.w3.org/1999/xlink">
<g id="microwave">
<path d="M477.65,101.933H34.35c-6.148,0-11.149,5.001-11.149,11.149v257.144c0,6.147,5.001,11.149,11.149,11.149h24.374v19.092   c0,5.294,4.307,9.601,9.6,9.601h57.744c5.293,0,9.6-4.307,9.6-9.601v-19.092h241.317v19.092c0,5.294,4.307,9.601,9.6,9.601h57.744   c5.293,0,9.601-4.307,9.601-9.601v-19.092h23.722c6.148,0,11.149-5.002,11.149-11.149V113.082   C488.8,106.934,483.799,101.933,477.65,101.933z M128.467,400.467c0,1.324-1.077,2.4-2.4,2.4H68.323c-1.324,0-2.4-1.076-2.4-2.4   v-19.092h62.544V400.467z M446.729,400.467c0,1.324-1.076,2.4-2.4,2.4h-57.744c-1.323,0-2.399-1.076-2.399-2.4v-19.092h62.544   V400.467z M481.6,370.226c0,2.178-1.771,3.949-3.949,3.949h-23.722h-76.944H135.667H58.723H34.35c-2.178,0-3.95-1.771-3.95-3.949   V113.082c0-2.178,1.772-3.949,3.95-3.949H477.65c2.178,0,3.949,1.771,3.949,3.949V370.226z"/>
<path d="M49.686,354.891h334.499V128.418H49.686V354.891z M56.886,135.618h320.099v212.072H56.886V135.618z"/>
<path d="M395.193,354.891h66.129v-40.307h-66.129V354.891z M402.393,321.784h51.729v25.905h-51.729V321.784z"/>
<path d="M395.193,303.906h66.129V128.418h-66.129V303.906z M402.393,135.618h51.729v161.089h-51.729V135.618z"/>
<path d="M219.48,218.817L219.48,218.817c-9.785-9.786-9.785-25.708,0-35.494l-5.091-5.09c-12.593,12.592-12.593,33.082,0,45.675   l2.546-2.545l-2.545,2.545c9.785,9.786,9.785,25.708,0,35.493l2.545,2.545l-2.546-2.545c-12.593,12.593-12.593,33.082,0,45.675   l5.091-5.091c-9.785-9.785-9.785-25.707,0-35.493l0-0.001C232.073,251.898,232.073,231.409,219.48,218.817z"/>
<path d="M140.261,201.07c0-6.7,2.613-13.002,7.358-17.747l-5.091-5.091c-6.105,6.104-9.467,14.215-9.467,22.838   c0,8.622,3.362,16.733,9.467,22.837c9.785,9.786,9.785,25.708,0,35.493c-6.105,6.104-9.467,14.215-9.467,22.838   s3.362,16.732,9.467,22.838l5.091-5.092c-4.745-4.744-7.358-11.047-7.358-17.746s2.613-13.002,7.358-17.747   c12.593-12.593,12.593-33.082,0-45.674C142.874,214.072,140.261,207.769,140.261,201.07z"/>
<path d="M291.342,183.323l-5.09-5.09c-12.594,12.592-12.594,33.082-0.002,45.675l2.547-2.545l-2.545,2.546   c4.744,4.745,7.357,11.047,7.357,17.747c0,6.699-2.613,13.001-7.357,17.746l2.545,2.545l-2.547-2.545   c-12.592,12.593-12.592,33.082,0.002,45.675l5.09-5.091c-9.785-9.785-9.785-25.707,0-35.493c6.105-6.104,9.467-14.215,9.467-22.837   c0-8.623-3.361-16.733-9.467-22.837C281.557,209.031,281.557,193.108,291.342,183.323z"/>
</g>
</svg>