<?xml version="1.0" encoding="iso-8859-1"?>
<!-- Uploaded to: SVG Repo, www.svgrepo.com, Generator: SVG Repo Mixer Tools -->
<svg fill="#000000" height="800px" width="800px" version="1.1" id="Layer_1" xmlns="http://www.w3.org/2000/svg" xmlns:xlink="http://www.w3.org/1999/xlink" 
	 viewBox="0 0 512 512" xml:space="preserve">
<g>
	<g>
		<path d="M172.487,167.521h-15.209h-31.701c-36.427,0-66.062,29.635-66.062,66.062v100.329c0,36.428,29.635,66.062,66.062,66.062
			h31.701v45.603c0,36.625,29.798,66.423,66.423,66.423h162.36c36.625,0,66.423-29.798,66.423-66.423V167.521H172.487z
			 M157.278,369.558h-31.701v-0.001c-19.655,0-35.645-15.99-35.645-35.645V233.583c0-19.655,15.99-35.645,35.645-35.645h31.701
			V369.558z M422.066,445.577c0,19.853-16.152,36.006-36.005,36.006h-162.36c-19.853,0-36.006-16.153-36.006-36.006V248.633h234.371
			V445.577z M422.066,218.216H187.696v-20.278h234.371V218.216z"/>
	</g>
</g>
<g>
	<g>
		<path d="M235.935,49.503c0-8.84,1.8-12.5,4.523-18.042c3.406-6.928,7.644-15.549,7.644-31.461h-30.417
			c0,8.84-1.8,12.5-4.523,18.042c-3.406,6.928-7.644,15.549-7.644,31.461c0,15.913,4.238,24.536,7.643,31.464
			c2.724,5.543,4.524,9.205,4.524,18.048s-1.8,12.505-4.524,18.048c-3.405,6.928-7.643,15.55-7.643,31.464h30.417
			c0-8.842,1.8-12.505,4.524-18.048c3.405-6.928,7.643-15.55,7.643-31.464s-4.238-24.536-7.643-31.464
			C237.735,62.008,235.935,58.345,235.935,49.503z"/>
	</g>
</g>
<g>
	<g>
		<path d="M314.006,49.503c0-8.84,1.8-12.5,4.523-18.042c3.406-6.928,7.644-15.549,7.644-31.461h-30.417
			c0,8.84-1.8,12.5-4.523,18.042c-3.406,6.928-7.644,15.549-7.644,31.461c0,15.913,4.238,24.536,7.643,31.464
			c2.724,5.543,4.524,9.205,4.524,18.048s-1.8,12.505-4.524,18.048c-3.405,6.928-7.643,15.55-7.643,31.464h30.417
			c0-8.842,1.8-12.505,4.524-18.048c3.405-6.928,7.643-15.55,7.643-31.464s-4.238-24.536-7.643-31.464
			C315.806,62.008,314.006,58.345,314.006,49.503z"/>
	</g>
</g>
<g>
	<g>
		<path d="M392.077,49.503c0-8.84,1.8-12.5,4.523-18.042c3.406-6.928,7.644-15.549,7.644-31.461h-30.417
			c0,8.84-1.8,12.5-4.523,18.042c-3.406,6.928-7.644,15.549-7.644,31.461c0,15.913,4.238,24.536,7.643,31.464
			c2.724,5.543,4.524,9.205,4.524,18.048s-1.8,12.505-4.524,18.048c-3.405,6.928-7.643,15.55-7.643,31.464h30.417
			c0-8.842,1.8-12.505,4.524-18.048c3.405-6.928,7.643-15.55,7.643-31.464s-4.238-24.536-7.643-31.464
			C393.877,62.008,392.077,58.345,392.077,49.503z"/>
	</g>
</g>
</svg>