<?xml version="1.0" encoding="iso-8859-1"?>
<!-- Uploaded to: SVG Repo, www.svgrepo.com, Generator: SVG Repo Mixer Tools -->
<svg fill="#000000" version="1.1" id="Layer_1" xmlns="http://www.w3.org/2000/svg" xmlns:xlink="http://www.w3.org/1999/xlink" 
	 viewBox="0 0 511.999 511.999" xml:space="preserve">
<g>
	<g>
		<path d="M374.77,116.118V79.952l-0.838-1.675c-1.793-3.587-19.795-34.267-110.002-35.975V15.862h139.854V0H261.278
			c-8.58,0-13.21,6.806-13.21,13.209v29.093c-90.208,1.708-108.208,32.388-110.001,35.975l-0.838,1.675v36.165h-31.669v58.087
			h26.867l21.117,337.795h204.91l21.111-337.795h26.871v-58.086H374.77z M263.93,58.167c69.782,1.386,90.65,20.93,94.978,26.137
			v31.814H263.93V58.167z M153.092,84.255c1.682-2.026,6.134-6.535,15.408-11.171c12.902-6.452,37.017-14.066,79.569-14.917v57.95
			h-94.977V84.255z M121.423,158.343v-26.364h126.646v26.364H121.423z M148.322,174.204h99.747v87.366
			c-3.897-1.767-8.549-2.945-14.342-2.945c-14.276,0-21.692,7.08-27.65,12.769c-5.074,4.843-8.739,8.343-16.579,8.343
			c-7.913,0-11.598-3.5-16.698-8.343c-4.638-4.404-10.19-9.668-19.177-11.755L148.322,174.204z M343.553,496.139H168.444v-0.001
			l-13.74-219.153c2.487,1.469,4.653,3.52,7.171,5.912c5.96,5.659,13.377,12.703,27.621,12.703c14.195,0,21.59-7.06,27.532-12.732
			c5.097-4.865,8.779-8.38,16.698-8.38c7.912,0,11.597,3.51,16.698,8.368c5.962,5.677,13.381,12.745,27.638,12.745
			c14.317,0,21.761-7.072,27.742-12.756c5.105-4.852,8.794-8.356,16.698-8.356c7.887,0,11.578,3.51,16.688,8.368
			c4.23,4.021,9.264,8.785,16.975,11.177L343.553,496.139z M357.217,277.242c-2.441-1.466-4.588-3.498-7.098-5.883
			c-5.967-5.672-13.394-12.733-27.617-12.733c-14.238,0-21.66,7.052-27.624,12.718c-5.129,4.873-8.834,8.394-16.817,8.394
			c-6.533,0-10.185-2.396-14.132-5.966v-99.567h99.743L357.217,277.242z M390.576,158.342H263.93v-26.364h126.646V158.342z"/>
	</g>
</g>
<g>
	<g>
		<path d="M255.053,314.433l-61.159,22.493l22.385,61.159l61.267-22.385L255.053,314.433z M214.234,346.345l31.399-11.549
			l11.547,31.455l-31.454,11.492L214.234,346.345z"/>
	</g>
</g>
<g>
	<g>
		<path d="M262.204,394.879l-26.437,57.205l57.103,26.438l26.435-57.096L262.204,394.879z M285.14,457.463l-28.325-13.114
			l13.117-28.385l28.325,13.169L285.14,457.463z"/>
	</g>
</g>
<g>
	<g>
		<rect x="292.948" y="311.401" width="21.112" height="15.862"/>
	</g>
</g>
<g>
	<g>
		<rect x="314.055" y="343.072" width="21.112" height="15.862"/>
	</g>
</g>
<g>
	<g>
		<rect x="176.829" y="416.967" width="21.112" height="15.862"/>
	</g>
</g>
<g>
	<g>
		<rect x="197.946" y="448.638" width="21.112" height="15.862"/>
	</g>
</g>
</svg>